<svg xmlns="http://www.w3.org/2000/svg" fill="none" viewBox="0 0 48 48" height="48" width="48"><g id="location-office--travel-places-location-office"><path id="Subtract" fill="#222222" fill-rule="evenodd" d="M20.537142857142857 7.494857142857143c-0.3771428571428571 1.3542857142857143 -0.576 2.7805714285714287 -0.576 4.254857142857143 0 6.123428571428571 3.4662857142857137 11.362285714285713 6.493714285714285 14.753142857142857 1.5771428571428572 1.7622857142857142 3.1954285714285713 3.2125714285714286 4.542857142857143 4.244571428571429a19.268571428571427 19.268571428571427 0 0 0 1.954285714285714 1.3371428571428572c-0.09257142857142857 3.6754285714285713 -0.37371428571428567 7.748571428571427 -0.7988571428571428 12.706285714285713a3.418285714285714 3.418285714285714 0 0 1 -3.408 3.12H4.662857142857143a3.418285714285714 3.418285714285714 0 0 1 -3.408 -3.12C0.04114285714285714 30.699428571428573 0.02057142857142857 23.732571428571426 2.115428571428571 12.788571428571428c0.5931428571428571 -3.1028571428571428 3.3497142857142856 -5.293714285714286 6.514285714285713 -5.293714285714286h11.904Z" clip-rule="evenodd" stroke-width="3.4285714285714284"></path><path id="Union" fill="#75f4e6" fill-rule="evenodd" d="M22.15885714285714 20.317714285714285a21.10628571428571 21.10628571428571 0 0 1 -1.6388571428571428 -4.265142857142857H11.348571428571429a2.142857142857143 2.142857142857143 0 1 0 0 4.285714285714286h10.536a2.1599999999999997 2.1599999999999997 0 0 0 0.2742857142857143 -0.02057142857142857Zm-12.956571428571428 7.371428571428571c0 -1.1862857142857142 0.9600000000000001 -2.1462857142857144 2.142857142857143 -2.1462857142857144h10.134857142857141a2.142857142857143 2.142857142857143 0 0 1 0 4.285714285714286H11.345142857142857a2.142857142857143 2.142857142857143 0 0 1 -2.142857142857143 -2.142857142857143Zm11.454857142857144 20.225142857142856H12.754285714285714v-7.309714285714286a3.4285714285714284 3.4285714285714284 0 0 1 3.4285714285714284 -3.4285714285714284h1.0491428571428572a3.4285714285714284 3.4285714285714284 0 0 1 3.4285714285714284 3.4285714285714284v7.309714285714286Z" clip-rule="evenodd" stroke-width="3.4285714285714284"></path><path id="Ellipse 44" fill="#75f4e6" d="M47.57485714285714 11.749714285714285c0 9.096 -10.529142857142856 16.97142857142857 -11.664 16.97142857142857 -1.1348571428571428 0 -11.664 -7.8754285714285714 -11.664 -16.97142857142857a11.664 11.664 0 1 1 23.328 0Z" stroke-width="3.4285714285714284"></path><path id="Vector (Stroke)" fill="#222222" fill-rule="evenodd" d="M35.91085714285714 8.71542857142857a2.571428571428571 2.571428571428571 0 0 1 2.571428571428571 2.571428571428571l0 0.6960000000000001a2.571428571428571 2.571428571428571 0 0 1 -5.142857142857142 0l0 -0.6960000000000001a2.571428571428571 2.571428571428571 0 0 1 2.571428571428571 -2.571428571428571Z" clip-rule="evenodd" stroke-width="3.4285714285714284"></path></g></svg>